<svg xmlns="http://www.w3.org/2000/svg" version="1.1" xmlns:xlink="http://www.w3.org/1999/xlink" xmlns:svgjs="http://svgjs.com/svgjs" width="1440" height="720" preserveAspectRatio="none" viewBox="0 0 1440 720"><g mask="url(&quot;#SvgjsMask1936&quot;)" fill="none"><rect width="1440" height="720" x="0" y="0" fill="rgba(0, 48, 125, 1)"></rect><path d="M709 392L708 792" stroke-width="10" stroke="url(#SvgjsLinearGradient1937)" stroke-linecap="round" class="Up"></path><path d="M1135 636L1134 1108" stroke-width="8" stroke="url(#SvgjsLinearGradient1938)" stroke-linecap="round" class="Down"></path><path d="M268 625L267 144" stroke-width="8" stroke="url(#SvgjsLinearGradient1937)" stroke-linecap="round" class="Up"></path><path d="M592 336L591 -23" stroke-width="8" stroke="url(#SvgjsLinearGradient1938)" stroke-linecap="round" class="Down"></path><path d="M599 540L598 1074" stroke-width="8" stroke="url(#SvgjsLinearGradient1938)" stroke-linecap="round" class="Down"></path><path d="M129 98L128 -100" stroke-width="10" stroke="url(#SvgjsLinearGradient1938)" stroke-linecap="round" class="Down"></path><path d="M397 95L396 570" stroke-width="6" stroke="url(#SvgjsLinearGradient1938)" stroke-linecap="round" class="Down"></path><path d="M915 419L914 653" stroke-width="10" stroke="url(#SvgjsLinearGradient1938)" stroke-linecap="round" class="Down"></path><path d="M661 112L660 583" stroke-width="10" stroke="url(#SvgjsLinearGradient1938)" stroke-linecap="round" class="Down"></path><path d="M339 116L338 -243" stroke-width="8" stroke="url(#SvgjsLinearGradient1938)" stroke-linecap="round" class="Down"></path><path d="M542 128L541 476" stroke-width="10" stroke="url(#SvgjsLinearGradient1938)" stroke-linecap="round" class="Down"></path><path d="M1072 114L1071 -308" stroke-width="8" stroke="url(#SvgjsLinearGradient1937)" stroke-linecap="round" class="Up"></path><path d="M920 456L919 993" stroke-width="10" stroke="url(#SvgjsLinearGradient1937)" stroke-linecap="round" class="Up"></path><path d="M369 87L368 -342" stroke-width="8" stroke="url(#SvgjsLinearGradient1937)" stroke-linecap="round" class="Up"></path><path d="M530 688L529 1146" stroke-width="8" stroke="url(#SvgjsLinearGradient1938)" stroke-linecap="round" class="Down"></path><path d="M878 619L877 204" stroke-width="10" stroke="url(#SvgjsLinearGradient1937)" stroke-linecap="round" class="Up"></path><path d="M832 373L831 897" stroke-width="8" stroke="url(#SvgjsLinearGradient1937)" stroke-linecap="round" class="Up"></path><path d="M1037 440L1036 915" stroke-width="8" stroke="url(#SvgjsLinearGradient1938)" stroke-linecap="round" class="Down"></path><path d="M977 309L976 751" stroke-width="6" stroke="url(#SvgjsLinearGradient1938)" stroke-linecap="round" class="Down"></path><path d="M575 325L574 668" stroke-width="8" stroke="url(#SvgjsLinearGradient1937)" stroke-linecap="round" class="Up"></path><path d="M1209 227L1208 706" stroke-width="8" stroke="url(#SvgjsLinearGradient1937)" stroke-linecap="round" class="Up"></path><path d="M893 511L892 310" stroke-width="10" stroke="url(#SvgjsLinearGradient1937)" stroke-linecap="round" class="Up"></path><path d="M1257 53L1256 -447" stroke-width="6" stroke="url(#SvgjsLinearGradient1937)" stroke-linecap="round" class="Up"></path><path d="M918 19L917 -299" stroke-width="8" stroke="url(#SvgjsLinearGradient1937)" stroke-linecap="round" class="Up"></path><path d="M966 355L965 853" stroke-width="10" stroke="url(#SvgjsLinearGradient1938)" stroke-linecap="round" class="Down"></path><path d="M424 127L423 -362" stroke-width="10" stroke="url(#SvgjsLinearGradient1937)" stroke-linecap="round" class="Up"></path><path d="M851 364L850 753" stroke-width="6" stroke="url(#SvgjsLinearGradient1938)" stroke-linecap="round" class="Down"></path><path d="M968 422L967 189" stroke-width="10" stroke="url(#SvgjsLinearGradient1938)" stroke-linecap="round" class="Down"></path><path d="M353 108L352 -279" stroke-width="8" stroke="url(#SvgjsLinearGradient1938)" stroke-linecap="round" class="Down"></path><path d="M482 391L481 755" stroke-width="6" stroke="url(#SvgjsLinearGradient1937)" stroke-linecap="round" class="Up"></path><path d="M348 700L347 928" stroke-width="10" stroke="url(#SvgjsLinearGradient1938)" stroke-linecap="round" class="Down"></path><path d="M103 666L102 220" stroke-width="8" stroke="url(#SvgjsLinearGradient1938)" stroke-linecap="round" class="Down"></path><path d="M860 391L859 817" stroke-width="8" stroke="url(#SvgjsLinearGradient1938)" stroke-linecap="round" class="Down"></path><path d="M1104 695L1103 332" stroke-width="10" stroke="url(#SvgjsLinearGradient1938)" stroke-linecap="round" class="Down"></path><path d="M313 383L312 9" stroke-width="8" stroke="url(#SvgjsLinearGradient1938)" stroke-linecap="round" class="Down"></path><path d="M462 436L461 915" stroke-width="10" stroke="url(#SvgjsLinearGradient1938)" stroke-linecap="round" class="Down"></path></g><defs><mask id="SvgjsMask1936"><rect width="1440" height="720" fill="#ffffff"></rect></mask><linearGradient x1="0%" y1="100%" x2="0%" y2="0%" id="SvgjsLinearGradient1937"><stop stop-color="rgba(87, 168, 255, 0)" offset="0"></stop><stop stop-color="rgba(87, 168, 255, 1)" offset="1"></stop></linearGradient><linearGradient x1="0%" y1="0%" x2="0%" y2="100%" id="SvgjsLinearGradient1938"><stop stop-color="rgba(87, 168, 255, 0)" offset="0"></stop><stop stop-color="rgba(87, 168, 255, 1)" offset="1"></stop></linearGradient></defs></svg>