<svg xmlns="http://www.w3.org/2000/svg" version="1.1" xmlns:xlink="http://www.w3.org/1999/xlink" xmlns:svgjs="http://svgjs.com/svgjs" width="1440" height="900" preserveAspectRatio="none" viewBox="0 0 1440 900"><g mask="url(&quot;#SvgjsMask1108&quot;)" fill="none"><rect width="1440" height="900" x="0" y="0" fill="#0e2a47"></rect><path d="M 0,45 C 96,95.2 288,301.4 480,296 C 672,290.6 768,23.2 960,18 C 1152,12.8 1344,219.6 1440,270L1440 900L0 900z" fill="rgba(24, 74, 126, 1)"></path><path d="M 0,448 C 17,452.8 51,490.8 85,472 C 119,453.2 136,350 170,354 C 204,358 221,480.4 255,492 C 289,503.6 306,418.2 340,412 C 374,405.8 391,481.8 425,461 C 459,440.2 476,308 510,308 C 544,308 561,445.2 595,461 C 629,476.8 646,363.8 680,387 C 714,410.2 731,593.2 765,577 C 799,560.8 816,306 850,306 C 884,306 901,577.6 935,577 C 969,576.4 986,309 1020,303 C 1054,297 1071,520 1105,547 C 1139,574 1156,430.4 1190,438 C 1224,445.6 1241,609.4 1275,585 C 1309,560.6 1327,332 1360,316 C 1393,300 1424,467.2 1440,505L1440 900L0 900z" fill="#184a7e"></path><path d="M 0,699 C 57.6,711.4 172.8,760.8 288,761 C 403.2,761.2 460.8,690.2 576,700 C 691.2,709.8 748.8,811.6 864,810 C 979.2,808.4 1036.8,700.6 1152,692 C 1267.2,683.4 1382.4,752 1440,767L1440 900L0 900z" fill="#2264ab"></path></g><defs><mask id="SvgjsMask1108"><rect width="1440" height="900" fill="#ffffff"></rect></mask></defs></svg>